<?xml version="1.0" encoding="UTF-8" standalone="no"?>
<!-- Created with Inkscape (http://www.inkscape.org/) -->

<svg
   version="1.1"
   id="svg63825"
   width="800"
   height="800"
   viewBox="0 0 800 800"
   sodipodi:docname="light-bulb-pdv.svg"
   inkscape:version="1.2 (dc2aedaf03, 2022-05-15)"
   xmlns:inkscape="http://www.inkscape.org/namespaces/inkscape"
   xmlns:sodipodi="http://sodipodi.sourceforge.net/DTD/sodipodi-0.dtd"
   xmlns="http://www.w3.org/2000/svg"
   xmlns:svg="http://www.w3.org/2000/svg">
  <defs
     id="defs63829">
    <clipPath
       clipPathUnits="userSpaceOnUse"
       id="clipPath63841">
      <path
         d="M 0,600 H 600 V 0 H 0 Z"
         id="path63839" />
    </clipPath>
  </defs>
  <sodipodi:namedview
     id="namedview63827"
     pagecolor="#ffffff"
     bordercolor="#000000"
     borderopacity="0.25"
     inkscape:showpageshadow="2"
     inkscape:pageopacity="0.0"
     inkscape:pagecheckerboard="0"
     inkscape:deskcolor="#d1d1d1"
     showgrid="false"
     inkscape:zoom="1.04625"
     inkscape:cx="400"
     inkscape:cy="400.4779"
     inkscape:window-width="1920"
     inkscape:window-height="1017"
     inkscape:window-x="-8"
     inkscape:window-y="-8"
     inkscape:window-maximized="1"
     inkscape:current-layer="g63833">
    <inkscape:page
       x="0"
       y="0"
       id="page63831"
       width="800"
       height="800" />
  </sodipodi:namedview>
  <g
     id="g63833"
     inkscape:groupmode="layer"
     inkscape:label="Page 1"
     transform="matrix(1.3333333,0,0,-1.3333333,0,800)">
    <g
       id="g63835">
      <g
         id="g63837"
         clip-path="url(#clipPath63841)">
        <g
           id="g63843"
           transform="translate(279.9053,215.0566)">
          <path
             d="m 0,0 1.877,0.057 v -0.132 c 0,0 -0.891,0.05 -1.877,0.075 m 18.503,75.367 c -4.943,0 -8.963,4.019 -8.963,8.961 0,4.941 4.02,8.961 8.963,8.961 4.94,0 8.961,-4.02 8.961,-8.961 0,-4.942 -4.021,-8.961 -8.961,-8.961 m 0,21.257 c -6.78,0 -12.296,-5.517 -12.296,-12.296 0,-6.78 5.516,-12.296 12.296,-12.296 6.779,0 12.296,5.516 12.296,12.296 0,6.779 -5.517,12.296 -12.296,12.296 M 100.056,37.609 C 100.654,17.666 94.584,9.569 87.301,0.903 L 87.281,0.9 C 87.235,0.89 87.186,0.882 87.14,0.87 L 82.258,4.092 57.729,3.258 v 5.003 h -9.486 c -0.476,18.87 -1.202,44.702 -1.629,46.621 -0.058,0.263 -0.115,0.566 -0.182,0.911 -0.53,2.742 -1.595,8.268 -6.571,16.438 0.032,0.027 0.066,0.05 0.096,0.078 6.004,5.091 9.058,10.785 9.904,18.461 0.694,6.281 -0.876,14.504 -4.623,16.838 -1.063,0.663 -2.267,0.851 -3.417,0.585 0.478,3.367 1.172,6.63 2,9.583 l 37.097,112.678 -3.167,1.042 -0.603,-1.83 c -5.287,2.351 -12.249,0.623 -18.479,-0.932 -4.237,-1.056 -8.246,-2.053 -11.063,-1.664 -0.701,0.096 -1.431,0.189 -2.173,0.28 0.641,5.858 0.822,12.42 0.835,12.841 l -1.668,0.045 c -0.001,-0.079 -0.109,-3.943 -0.435,-8.357 -0.879,0.933 -1.997,1.544 -3.123,1.602 -1.485,0.071 -2.747,-0.804 -3.457,-2.413 -0.37,-0.838 -0.555,-1.912 -0.561,-3.047 -6.191,0.207 -13.265,-0.246 -20.964,-2.265 -10.179,-2.669 -17.973,-3.058 -27.74,-1.187 -0.295,1.821 -0.893,3.546 -1.624,4.487 -1.303,1.676 -2.531,1.557 -3.14,1.337 -0.771,-0.278 -1.347,-0.963 -1.737,-1.819 l -2.084,5.675 -1.566,-0.575 2.719,-7.406 c -10.03,2.392 -26.097,5.214 -35.014,1.524 l -1.572,-0.65 49.309,-112.708 0.062,-0.126 c 0.485,-0.894 1.054,-3.949 1.522,-7.964 -3.281,-1.497 -6.353,-4.024 -7.621,-9.475 -2.298,-9.862 2.258,-20.257 10.691,-25.958 -4.342,-5.204 -7.155,-14.618 -7.155,-17.775 0,-3.278 1.102,-47.248 1.345,-56.906 -0.857,0.041 -1.708,0.084 -2.55,0.128 V 8.261 h -3.033 c -1.459,0 -1.597,-4.377 -1.597,-4.377 0,0 -18.827,0.208 -20.286,0 -0.982,-0.142 -5.558,-2.171 -8.44,-3.483 -0.192,0.053 -0.385,0.107 -0.568,0.161 -7.908,8.484 -14.625,16.178 -15.028,36.524 -0.56,28.327 -13.352,51.521 -40.021,89.787 -27.822,39.918 -29.601,98.497 -4.326,142.453 27.788,48.328 71.903,73.787 124.242,71.689 l 0.139,-0.003 c 41.434,0.047 84.285,-26.448 111.811,-69.243 27.428,-42.645 28.567,-101.239 2.763,-142.492 C 110.829,89.734 99.207,65.931 100.056,37.609 M 80.773,-81.901 c -26.037,-7.11 -88.613,-8.507 -114.693,-6.28 -0.068,0.725 -0.229,1.407 -0.473,2.031 6.349,-0.37 17.11,-0.69 29.952,-0.69 26.091,0 60.749,1.322 84.358,6.248 0.254,-0.461 0.548,-0.893 0.856,-1.309 m -121.236,2.618 c 0.649,0.993 1.37,1.717 2.132,2.483 0.47,0.472 0.976,0.991 1.457,1.575 7.543,-0.764 18.846,-1.178 31.736,-1.178 31.324,0 71.933,2.445 90.273,8.211 0.128,-0.219 0.216,-0.426 0.242,-0.614 0.075,-0.512 -0.105,-0.857 -2.226,-2.225 -1.726,-1.112 -4.588,-2.964 -4.256,-6.365 -11.76,-2.428 -26.243,-3.963 -41.012,-4.89 l -0.582,4.116 c 0,0 -13.785,-1.048 -26.045,-1.307 C 0.52,-79.703 -9.307,-79.2 -9.307,-79.2 l 0.587,-4.309 c -13.695,0.079 -24.457,0.518 -29.025,0.934 -1.252,1.066 -2.571,2.521 -2.718,3.292 m 5.226,48.465 c 5.732,-0.328 15.762,-0.604 27.912,-0.604 27.387,0 65.519,1.402 89.361,6.752 0.037,-0.512 0.152,-1.046 0.364,-1.604 -30.219,-7.738 -93.867,-8.305 -117.58,-6.107 0.033,0.501 0.012,1.022 -0.057,1.563 m 119.575,-2.343 c -1.382,-0.571 -3.275,-1.351 -4.257,-3.413 -0.569,-1.196 -0.864,-2.283 -0.961,-3.278 -11.725,-2.634 -26.887,-4.219 -42.439,-5.115 v 3.418 c 0,0 -13.372,-0.984 -26.572,-1.145 -12.483,-0.152 -24.834,0.521 -24.834,0.521 v -3.679 c -11.724,0.218 -20.512,0.685 -23.683,1.084 l -0.012,-0.092 c -0.555,0.449 -1.102,0.829 -1.575,1.155 -0.58,0.402 -1.552,1.073 -1.678,1.362 0,0.001 -0.034,0.2 0.135,0.7 0.231,0.27 0.825,0.779 1.269,1.161 0.537,0.461 1.206,1.041 1.882,1.732 7.424,-0.854 20.166,-1.377 35.041,-1.377 29.933,0 68.448,2.116 89.348,7.911 -0.152,-0.257 -0.514,-0.472 -1.664,-0.945 M -35.573,-48.38 c 6.612,-0.497 19.636,-0.988 35.189,-0.988 25.662,0 58.171,1.342 79.977,6.205 0.198,-0.482 0.442,-0.926 0.72,-1.336 -26.672,-7.097 -90.008,-8.403 -115.275,-6.06 -0.108,0.807 -0.321,1.531 -0.611,2.179 M 80.378,-62.635 c -26.582,-7.099 -89.814,-8.417 -115.196,-6.092 -0.05,0.509 -0.147,0.986 -0.282,1.433 6.885,-0.47 19.379,-0.911 34.149,-0.911 26.018,0 59.082,1.375 80.885,6.405 0.133,-0.289 0.282,-0.566 0.444,-0.835 m -1.056,4.117 c -11.794,-2.73 -27.232,-4.365 -43.081,-5.28 v 4.135 l -49.856,-1.059 0.294,-4.003 c -10.972,0.173 -19.623,0.567 -23.935,0.943 -0.753,0.769 -1.55,1.38 -2.199,1.87 -1.334,1.013 -1.789,1.447 -1.919,1.855 0.367,0.306 1.015,0.731 1.478,1.035 0.839,0.548 1.811,1.186 2.674,1.99 7.54,-0.789 18.99,-1.216 32.084,-1.216 31.609,0 72.671,2.488 90.768,8.366 -0.154,-0.797 -0.887,-1.611 -2.583,-3.109 -1.504,-1.329 -3.466,-3.072 -3.725,-5.527 m -20.134,58.443 10.003,1.458 1.397,-3.046 c -3.46,-0.4 -7.07,-0.751 -10.788,-1.06 z m -10.852,4.629 1.682,0.581 v -8.548 c -0.494,-0.029 -0.989,-0.057 -1.485,-0.085 -0.056,2.333 -0.121,5.064 -0.197,8.052 m -12.12,-25.339 c 0.259,2.466 0.134,6.98 0.002,10.038 17.845,0.57 35.25,2 48.765,4.418 0.447,-4.978 0.743,-9.982 0.603,-11.859 -0.197,-0.205 -0.405,-0.412 -0.621,-0.621 -0.512,-0.506 -1.261,-1.252 -1.876,-2.194 -12.557,-3.025 -29.588,-4.851 -46.982,-5.89 -0.061,0.653 -0.079,1.695 0.134,3.199 -15.029,-2.363 -53.191,-1.459 -53.191,-1.459 v -2.892 c -8.615,0.112 -15.462,0.361 -19.39,0.631 -1.09,1.97 -3.433,3.567 -5.265,4.573 0.083,4.927 -0.282,11.633 -0.578,16.076 6.051,-1.31 14.482,-2.344 24.305,-3.068 l 0.212,-11.364 c 0,0 31.79,-2.088 53.882,0.412 m -32.61,88.94 c 0.102,-0.04 0.203,-0.083 0.307,-0.119 1.511,-0.542 2.991,-0.987 4.445,-1.361 L 9.177,8.261 h -7.3 V 0.057 l 7.41,0.225 0.065,-4.561 c -3.761,0.054 -7.459,0.143 -11.053,0.268 -0.025,0.929 -0.059,2.278 -0.1,3.957 L 0,0 c -0.634,0.019 -1.303,0.025 -1.802,0.004 -0.35,13.969 -1.253,50.27 -1.253,53.132 0,2.973 3.691,12.56 6.661,15.019 M -17.035,225.76 c -0.022,0.006 -0.046,0.011 -0.069,0.016 0.021,1.555 0.637,2.837 1.224,3.047 0.459,0.163 1.033,-0.499 1.261,-0.792 0.525,-0.674 0.931,-1.843 1.184,-3.105 -1.171,0.25 -2.363,0.521 -3.6,0.834 m 3.282,-6.231 c -0.282,-0.271 -0.896,0.143 -1.27,0.439 l -0.755,2.06 c 0.882,-0.203 1.754,-0.396 2.608,-0.567 -0.06,-0.894 -0.244,-1.611 -0.583,-1.932 m 53.232,2.093 c 0.433,-0.329 1.115,-0.696 2.006,-0.696 0.373,0 0.786,0.07 1.232,0.228 -0.11,-0.394 -0.225,-0.749 -0.348,-1.048 -1.736,-4.246 -12.389,-41.405 -14.329,-48.192 -2.828,0.382 -6.587,0.508 -11.558,0.221 -5.76,-0.334 -9.821,-0.826 -13.454,-1.339 l -17.247,46.984 c 0.088,-0.011 0.173,-0.015 0.255,-0.015 0.631,0 1.08,0.292 1.36,0.557 0.621,0.591 0.956,1.624 1.074,2.832 9.882,-1.78 18.129,-1.326 28.435,1.377 7.579,1.987 14.554,2.383 20.629,2.133 0.408,-1.26 1.057,-2.367 1.945,-3.042 m 4.298,5.916 c -1.611,0.172 -3.308,0.316 -5.087,0.41 -0.002,0.927 0.133,1.798 0.421,2.447 0.433,0.983 1.042,1.464 1.846,1.42 1.172,-0.06 2.454,-1.226 2.981,-2.68 -0.05,-0.536 -0.103,-1.069 -0.161,-1.597 m -0.585,-4.234 c -1.593,-1.191 -2.424,-0.567 -2.706,-0.355 -0.474,0.36 -0.856,0.938 -1.146,1.623 1.39,-0.087 2.724,-0.206 4.008,-0.341 -0.05,-0.319 -0.102,-0.627 -0.156,-0.927 M 15.012,8.261 14.211,65.576 c 1.646,-0.193 3.248,-0.294 4.796,-0.294 1.255,0 2.471,0.066 3.655,0.178 L 25.344,8.261 h -1.375 z m 10.682,-7.48 0.239,-5.059 C 22.332,-4.328 18.741,-4.347 15.188,-4.332 L 15.123,0.46 Z m 6.679,79.448 C 31.324,76.625 29.172,73.805 26.432,72.008 22.469,71.006 17.388,70.628 11.27,71.971 6.986,74.392 4.741,78.264 3.403,81.896 1.862,81.083 0.3,80.904 -1.178,81.087 c 0.812,5.444 0.71,13.467 0.165,20.497 0.724,0.257 1.528,0.507 2.414,0.774 2.478,0.752 5.287,1.602 7.881,3.4 1.241,0.86 2.32,1.713 3.275,2.467 4.073,3.218 5.04,3.981 9.831,0.265 5.613,-4.355 11.074,-6.785 15.457,-7.058 -0.218,-5.523 0.283,-11.488 2.343,-16.767 -2.792,-2.607 -5.87,-4.368 -7.815,-4.436 M 42.58,1.295 c 0.042,-1.731 0.084,-3.431 0.122,-5.086 -3.615,-0.16 -7.27,-0.285 -10.934,-0.375 l -0.24,5.124 z m -1.541,0.088 v 6.878 h -4.358 -5.496 l -2.73,58.232 c 2.402,0.64 4.589,1.504 6.533,2.515 4.325,-7.148 5.22,-11.759 5.714,-14.321 0.073,-0.38 0.139,-0.718 0.203,-1.013 0.351,-2.483 1.123,-29.956 1.672,-52.291 z m 0.172,100.326 c 0.453,0.114 0.895,0.251 1.307,0.436 0.888,-1.552 2.087,-5.804 1.543,-10.736 -0.109,-1.001 -0.266,-1.944 -0.462,-2.85 -0.264,-0.376 -0.543,-0.742 -0.831,-1.104 -1.352,4.3 -1.773,9.251 -1.557,14.254 m -0.578,17.04 c -0.612,-2.177 -1.669,-6.417 -2.306,-11.534 -1.941,0.079 -4.946,0.988 -8.763,3.37 l -1.637,52.416 -6.666,-0.209 1.485,-47.551 c -3.423,1.872 -6.062,1.894 -8.366,1.036 l -1.816,46.481 c 7.203,-0.182 20.131,0.087 22.588,2.779 1.308,1.43 1.608,4.707 -5.457,6.102 2.037,7.117 12.551,43.763 14.218,47.836 0.436,1.066 0.794,2.69 1.087,4.567 0.735,-0.089 1.457,-0.18 2.15,-0.276 3.464,-0.476 7.768,0.597 12.326,1.734 6.107,1.524 12.399,3.085 16.623,0.975 z M -4.364,82.024 c -0.035,0.016 -0.072,0.034 -0.106,0.049 -2.409,4.027 -3.355,8.828 -2.274,13.473 0.501,2.149 1.305,3.469 2.527,4.425 0.439,-6.241 0.536,-13.164 -0.147,-17.947 m -46.874,143.243 c 6.749,1.921 18.731,0.956 33.387,-2.741 0.043,-0.011 0.083,-0.019 0.124,-0.03 L 1.372,170.469 c -3.687,-1.314 -7.365,-7.573 7.851,-7.573 l -3.332,-0.129 1.981,-50.8 c -0.604,-0.467 -1.233,-0.941 -1.914,-1.413 -1.839,-1.275 -3.98,-1.924 -6.248,-2.609 -0.431,-0.131 -0.873,-0.267 -1.319,-0.408 -0.498,3.963 -1.123,7.055 -1.748,8.285 z M -36.01,-96.719 c -0.297,0.37 -0.571,0.723 -0.812,1.044 0.343,0.299 0.661,0.626 0.952,0.98 7.525,-0.703 18.398,-1.083 30.732,-1.083 31.274,0 71.801,2.437 90.183,8.183 -0.559,-0.723 -1.684,-1.864 -3.732,-3.314 l -0.023,0.09 c -34.327,-8.615 -99.029,-7.618 -117.3,-5.9 m 56.912,-26.569 c -1.277,4.879 0.917,12.084 5.225,22.658 18.245,0.777 36.925,2.441 51.428,5.528 l 0.327,-1.005 c 1.603,-4.926 -13.36,-19.355 -20.923,-24.931 -5.925,-1.219 -20.689,-2.152 -36.057,-2.25 m -30.671,1.248 c -6.952,4.86 -17.094,14.878 -23.194,21.736 7.153,-0.497 18.266,-0.879 31.142,-0.89 2.197,-4.559 8.266,-16.129 15.839,-22.082 -8.606,0.092 -17.018,0.471 -23.787,1.236 M 10.6,-134.705 c -0.855,0.238 -3.156,1.407 -5.602,2.716 1.655,-0.018 3.296,-0.027 4.919,-0.027 10.816,0 20.931,0.391 30.799,0.956 l -5.388,-3.645 z m 152.811,335.483 c -0.653,27.035 -8.787,54.007 -22.901,75.952 -29.143,45.307 -74.867,73.452 -119.328,73.452 h -0.091 c -55.846,2.206 -102.885,-24.895 -132.434,-76.286 -13.006,-22.616 -19.785,-49.961 -19.095,-76.996 0.715,-27.881 8.96,-53.91 23.847,-75.269 25.591,-36.72 37.862,-58.764 38.376,-84.727 0.469,-23.685 9.321,-33.805 16.706,-41.754 0.301,-4.163 0.972,-14.392 0.673,-19.695 l -0.229,-4.059 3.727,-1.623 c 1.11,-0.482 2.269,-1.195 2.857,-1.627 -0.232,-0.281 -0.725,-0.78 -1.761,-1.671 -1.411,-1.21 -3.008,-2.582 -3.813,-4.707 -2.9,-7.666 2.73,-11.554 4.849,-13.018 0.077,-0.051 0.148,-0.102 0.215,-0.148 -2.035,-1.333 -5.352,-3.554 -5.58,-7.757 -0.303,-5.605 3.52,-8.505 5.574,-10.062 0.302,-0.229 0.536,-0.411 0.715,-0.555 -0.201,-0.209 -0.419,-0.43 -0.549,-0.56 -0.945,-0.949 -2.236,-2.247 -3.439,-4.138 -1.296,-2.034 -1.687,-4.392 -1.134,-6.815 0.728,-3.192 3.039,-5.869 5.028,-7.667 l -1.605,-0.334 -0.949,-3.436 c -0.844,-3.057 -0.437,-6.052 12.389,-19.329 2.495,-2.579 10.864,-11.068 18.087,-16.465 0.156,-2.954 2.537,-5.374 5.553,-5.514 1.487,-0.07 2.954,-0.13 4.41,-0.183 0.42,-0.234 0.879,-0.492 1.333,-0.747 11.327,-6.346 13.501,-7.248 15.58,-7.248 h 0.069 c 1.06,-2.301 3.385,-3.89 6.044,-3.89 h 14.728 c 2.658,0 4.983,1.589 6.043,3.89 h 0.319 l 13.727,9.284 c 0.018,0.012 0.033,0.022 0.048,0.034 2.113,0.144 4.223,0.29 6.33,0.441 2.583,0.186 4.68,2.058 5.249,4.489 5.337,4.116 22.615,18.257 24.042,29.856 4.28,3.097 6.711,6.124 7.422,9.232 0.509,2.227 0.145,4.395 -1.051,6.275 -1.188,1.867 -2.598,3.314 -3.733,4.476 -0.079,0.083 -0.162,0.167 -0.244,0.252 2.422,1.726 5.827,4.92 5.038,10.377 -0.549,3.793 -3.01,6.255 -4.808,8.052 -0.007,0.006 -0.015,0.016 -0.023,0.024 2.523,2.27 7.112,6.954 4.408,14.099 -0.879,2.322 -2.679,3.653 -4.184,4.617 1.988,1.096 4.424,3.084 5.238,6.897 0.718,3.37 -0.206,6.81 -2.496,9.603 2.562,2.309 2.42,6.377 1.929,13.596 -0.111,1.634 -0.254,3.424 -0.427,5.332 7.577,8.995 15.842,19.494 15.132,43.157 -0.779,25.957 10.381,48.585 34.117,86.53 13.804,22.073 20.745,48.478 20.072,76.363"
             style="fill:#000000;fill-opacity:1;fill-rule:nonzero;stroke:none"
             id="path63845" />
        </g>
      </g>
    </g>
  </g>
</svg>
